<svg>
  <symbol id="restaurant" data-name="restaurant" xmlns="http://www.w3.org/2000/svg" viewBox="0 0 101 101" fill="currentColor">
    <title>restaurant</title>
    <path d="M87.56,64,67.66,75.79,60.08,71h9.53a5.5,5.5,0,0,0,0-11H53.24a15.19,15.19,0,0,0-5.51,1L35,66.78V65.5A1.5,1.5,0,0,0,33.5,64h-11A1.5,1.5,0,0,0,21,65.5v25A1.5,1.5,0,0,0,22.5,92h11A1.5,1.5,0,0,0,35,90.5V89H66.09a9.32,9.32,0,0,0,5.48-1.77L92.83,72A4.83,4.83,0,0,0,87.56,64ZM32,89H24V67h8ZM91.09,69.61,69.82,84.8A6.35,6.35,0,0,1,66.09,86H35V70.07l13.88-6.27A12.13,12.13,0,0,1,53.24,63H69.61a2.5,2.5,0,0,1,0,5H54.9a1.5,1.5,0,0,0-.8,2.77l12.73,8a1.5,1.5,0,0,0,1.57,0l20.7-12.29a1.83,1.83,0,0,1,2,3.06Z"/><path d="M94.5,52H91A38.55,38.55,0,0,0,57.35,14.82a6.5,6.5,0,1,0-9.69,0A38.54,38.54,0,0,0,14,52H9.5a1.5,1.5,0,0,0,0,3h85a1.5,1.5,0,0,0,0-3ZM52.5,7A3.5,3.5,0,1,1,49,10.5,3.5,3.5,0,0,1,52.5,7Zm0,10.5A35.53,35.53,0,0,1,88,52H17A35.53,35.53,0,0,1,52.5,17.5Z"/><path d="M44.44,24.61a29.46,29.46,0,0,0-18.8,16.17A1.5,1.5,0,1,0,28.37,42,26.47,26.47,0,0,1,45.26,27.5a1.5,1.5,0,1,0-.82-2.89Z"/>
  </symbol>

  <symbol id="address" fill="currentColor" xmlns="http://www.w3.org/2000/svg" viewBox="0 0 64 64">
    <g id="Outline">
    <path d="M29,14v9H7a1,1,0,0,0-.707.293l-4,4A1,1,0,0,0,2.4,28.8l4,3A1,1,0,0,0,7,32H29V61a1,1,0,0,0,1,1h4a1,1,0,0,0,1-1V42H57a1,1,0,0,0,.6-.2l4-3a1,1,0,0,0,.107-1.507l-4-4A1,1,0,0,0,57,33H35V22H57a1,1,0,0,0,.6-.2l4-3a1,1,0,0,0,.107-1.507l-4-4A1,1,0,0,0,57,13H35V10a.981.981,0,0,0-.062-.307,4,4,0,1,0-5.876,0A.981.981,0,0,0,29,10Zm2,1h2v5H31ZM7.333,30,4.522,27.892,7.414,25H29v5ZM33,30H31V25h2Zm-2,5h2v5H31Zm2,25H31V42h2ZM56.586,35l2.892,2.892L56.667,40H35V35ZM31,33V32h2v1Zm2-10H31V22h2Zm23.586-8,2.892,2.892L56.667,20H35V15ZM31,13V11h2v2Zm1-8a2,2,0,1,1-2,2A2,2,0,0,1,32,5Z"/></g>
  </symbol>

  <symbol version="1.1" id="phone" fill="currentColor" xmlns="http://www.w3.org/2000/svg" xmlns:xlink="http://www.w3.org/1999/xlink" x="0px" y="0px"
    viewBox="0 0 100.4 100.4" style="enable-background:new 0 0 100.4 100.4;" xml:space="preserve">
    <g>
      <path d="M69.3,8.6H28c-5.3,0-9.7,4.3-9.7,9.6v66.2c0,5.3,4.3,9.6,9.7,9.6h41.3c5.3,0,9.7-4.3,9.7-9.6V18.2
        C79,12.9,74.7,8.6,69.3,8.6z M76,84.4c0,3.7-3,6.6-6.7,6.6H28c-3.7,0-6.7-3-6.7-6.6V18.2c0-3.7,3-6.6,6.7-6.6h41.3
        c3.7,0,6.7,3,6.7,6.6V84.4z"/>
      <path d="M60.9,18.1H36.2c-0.8,0-1.5,0.7-1.5,1.5s0.7,1.5,1.5,1.5h24.7c0.8,0,1.5-0.7,1.5-1.5S61.7,18.1,60.9,18.1z"/>
      <path d="M48.6,75.4c-2.8,0-5,2.3-5,5c0,1.3,0.5,2.6,1.5,3.5c0.9,0.9,2.2,1.4,3.5,1.4c0,0,0,0,0,0c2.8,0,5-2.3,5-5
        C53.6,77.6,51.4,75.4,48.6,75.4z M48.7,82.4C48.7,82.4,48.7,82.4,48.7,82.4c-0.5,0-1-0.2-1.4-0.6c-0.4-0.4-0.6-0.9-0.6-1.4
        c0-1.1,0.9-2,2-2c0,0,0,0,0,0c1.1,0,2,0.9,2,2C50.7,81.5,49.8,82.4,48.7,82.4z"/>
    </g>
  </symbol>

  <symbol id="time" fill="currentColor" version="1.1" xmlns="http://www.w3.org/2000/svg" xmlns:xlink="http://www.w3.org/1999/xlink" x="0px" y="0px"
    viewBox="0 0 50 50" style="enable-background:new 0 0 50 50;" xml:space="preserve">
    <g id="Layer_1">
      <path d="M11,40.485V47H7v2h36v-2h-4v-6.515c0-1.871-0.729-3.628-2.051-4.95L26.414,25l10.535-10.535
        C38.271,13.143,39,11.385,39,9.515V3h4V1H7v2h4v6.515c0,1.871,0.729,3.628,2.051,4.95L23.586,25L13.051,35.535
        C11.729,36.857,11,38.615,11,40.485z M14.465,13.05C13.521,12.106,13,10.851,13,9.515V3h24v6.515c0,1.336-0.521,2.592-1.465,3.536
        L25,23.586L14.465,13.05z M25,26.414L35.535,36.95C36.479,37.894,37,39.149,37,40.485V47H13v-6.515
        c0-1.336,0.521-2.592,1.465-3.536L25,26.414z"/>
    </g>
    <g>
    </g>
  </symbol>

  <symbol id="price" data-name="price" fill="currentColor" xmlns="http://www.w3.org/2000/svg" viewBox="0 0 512 512">
    <title>Price</title>
    <path d="M405.333,21.333H106.667a32.035,32.035,0,0,0-32,32V473.26a16,16,0,0,0,23.156,14.313l27.786-13.9a5.334,5.334,0,0,1,4.776,0l28.359,14.182a26.818,26.818,0,0,0,23.849,0l28.349-14.182a5.334,5.334,0,0,1,4.776,0l28.359,14.182a26.818,26.818,0,0,0,23.849,0l28.359-14.182a5.317,5.317,0,0,1,4.76,0l28.365,14.182a26.818,26.818,0,0,0,23.849,0l28.349-14.182a5.334,5.334,0,0,1,4.776,0l27.8,13.9a16,16,0,0,0,23.151-14.312V53.333A32.035,32.035,0,0,0,405.333,21.333ZM416,464.63l-20.078-10.042a26.818,26.818,0,0,0-23.849,0l-28.349,14.182a5.367,5.367,0,0,1-4.776,0l-28.365-14.182a26.774,26.774,0,0,0-23.844.005l-28.349,14.177a5.367,5.367,0,0,1-4.776,0l-28.359-14.182a26.818,26.818,0,0,0-23.849,0l-28.349,14.182a5.367,5.367,0,0,1-4.776,0l-28.359-14.182a26.818,26.818,0,0,0-23.849,0L96,464.63V53.333a10.679,10.679,0,0,1,10.667-10.667H405.333A10.679,10.679,0,0,1,416,53.333Z"/><path d="M245.479,209.964c2.333.885,4.453,1.685,6.219,2.464,2.344,1.034,5.052,2.073,7.953,3.182,16.6,6.341,28.349,11.826,28.349,24.7,0,6.622-5.839,14.026-14.521,18.419-15.844,8.018-35.953,4.956-53.828-8.187a10.665,10.665,0,1,0-12.635,17.185c12.173,8.954,25.322,14.317,38.318,16.073v14.865a10.667,10.667,0,0,0,21.333,0v-15.4a61.935,61.935,0,0,0,16.443-5.494c16.177-8.187,26.224-22.539,26.224-37.458,0-28.56-26.333-38.62-42.068-44.63-2.536-.971-4.911-1.87-6.958-2.773s-4.531-1.854-7.255-2.888c-15.9-6.036-29.052-12.081-29.052-25,0-6.622,5.839-14.026,14.521-18.419,15.839-8.013,35.953-4.953,53.828,8.188A10.666,10.666,0,1,0,304.984,137.6c-12.173-8.951-25.323-14.371-38.318-16.126V106.667a10.667,10.667,0,1,0-21.333,0v15.348a62.026,62.026,0,0,0-16.443,5.551c-16.177,8.185-26.224,22.536-26.224,37.456C202.667,193.708,230.516,204.284,245.479,209.964Z"/><path d="M341.333,330.667H170.667a10.667,10.667,0,1,0,0,21.333H341.333a10.667,10.667,0,1,0,0-21.333Z"/><path d="M341.333,373.333H170.667a10.667,10.667,0,1,0,0,21.333H341.333a10.667,10.667,0,1,0,0-21.333Z"/>
  </symbol>

  <symbol version="1.1" id="beer" fill="currentColor" xmlns="http://www.w3.org/2000/svg" xmlns:xlink="http://www.w3.org/1999/xlink" x="0px" y="0px"
	 viewBox="0 0 512.002 512.002" style="enable-background:new 0 0 512.002 512.002;" xml:space="preserve">
    <g>
      <g>
        <path d="M228.242,108.792l-48.176-12.909c-5.266-1.411-11.173-0.242-15.416,3.05c-3.227,2.502-5.236,6.047-5.673,9.917
          l-5.337,19.919c-1.573,3.644-1.586,7.801,0.006,11.644c0.524,1.265,1.209,2.463,2.025,3.573
          c-5.1,10.618-10.914,23.713-17.017,38.282c-0.007,0.017-0.014,0.033-0.021,0.049c-5.331,12.728-10.879,26.572-16.359,40.867
          c-18.682,5.068-42.505,26.934-49.436,52.794L26.98,447.128c-4.413,16.473,6.424,33.74,24.157,38.491l46.947,12.58
          c0,0,0.002,0,0.002,0.001l46.945,12.579c3.054,0.818,6.156,1.224,9.229,1.224c5.351,0,10.613-1.23,15.372-3.648
          c7.852-3.99,13.38-10.678,15.565-18.832l6.308-23.543c0.001-0.003,0.003-0.007,0.003-0.01c0.001-0.003,0.001-0.006,0.002-0.009
          l39.546-147.587c6.93-25.861-2.77-56.708-16.414-70.439c3.437-21.645,6.295-42.565,8.314-60.632
          c0.006-0.052,0.013-0.104,0.018-0.157c1.01-9.053,1.807-17.38,2.362-24.725c4.329-2.121,7.763-6.016,9.107-11.027l5.832-21.763
          C242.7,120.568,237.302,111.22,228.242,108.792z M165.878,484.344c-0.697,2.599-2.581,4.794-5.307,6.179
          c-3.085,1.567-6.766,1.9-10.365,0.936l-46.944-12.578c-0.001,0-0.001-0.001-0.002-0.001L56.313,466.3
          c-6.961-1.865-11.547-8.275-10.015-13.997l3.723-13.895l119.58,32.042L165.878,484.344z M174.778,451.132L55.197,419.09
          L89.57,290.813l119.58,32.042L174.778,451.132z M213.276,303.255l-117.482-31.48c8.671-17.117,26.267-29.503,34.042-29.699
          c4.061-0.102,7.658-2.652,9.099-6.451c5.197-13.704,10.479-27.05,15.591-39.444h47.256c-1.648,13.427-3.697,28.106-6.052,43.269
          l-2.445-0.655c-5.337-1.43-10.818,1.736-12.247,7.071c-1.429,5.335,1.736,10.818,7.071,12.247l11.479,3.076
          C206.103,266.396,214.278,284.986,213.276,303.255z M215.733,143.945c-0.079,0.001-0.157,0.01-0.236,0.013
          c-0.074,0.002-0.146,0.007-0.219,0.012c-0.243,0.015-0.484,0.038-0.723,0.07c-0.083,0.011-0.165,0.021-0.247,0.034
          c-0.239,0.038-0.475,0.086-0.71,0.141c-0.068,0.016-0.138,0.028-0.206,0.046c-0.287,0.074-0.57,0.159-0.848,0.258
          c-0.09,0.032-0.177,0.071-0.267,0.105c-0.187,0.073-0.373,0.148-0.555,0.231c-0.113,0.052-0.223,0.108-0.333,0.164
          c-0.157,0.079-0.311,0.161-0.464,0.248c-0.107,0.061-0.214,0.124-0.319,0.189c-0.159,0.098-0.313,0.203-0.466,0.31
          c-0.088,0.062-0.177,0.121-0.263,0.186c-0.203,0.152-0.399,0.312-0.59,0.479c-0.03,0.026-0.062,0.049-0.091,0.076
          c-0.225,0.202-0.439,0.415-0.646,0.636c-0.043,0.046-0.082,0.095-0.124,0.142c-0.157,0.175-0.309,0.355-0.454,0.542
          c-0.059,0.076-0.115,0.155-0.172,0.233c-0.119,0.162-0.233,0.328-0.342,0.498c-0.061,0.095-0.121,0.192-0.179,0.289
          c-0.094,0.158-0.182,0.321-0.268,0.485c-0.058,0.111-0.116,0.221-0.17,0.334c-0.075,0.16-0.143,0.324-0.21,0.488
          c-0.05,0.121-0.104,0.24-0.148,0.363c-0.088,0.242-0.165,0.49-0.235,0.742c-0.083,0.299-0.15,0.604-0.206,0.913
          c-0.012,0.065-0.03,0.13-0.041,0.195c-0.007,0.042-0.008,0.087-0.015,0.131c-0.044,0.302-0.079,0.604-0.096,0.905
          c-0.364,6.547-0.996,14.238-1.859,22.779h-41.044c5.17-11.881,9.983-22.289,14.13-30.493c0.131-0.26,0.248-0.53,0.357-0.804
          c0.019-0.049,0.045-0.097,0.064-0.146c0.02-0.054,0.034-0.111,0.054-0.165c0.11-0.304,0.206-0.61,0.286-0.919
          c0.065-0.253,0.123-0.507,0.167-0.76c0.022-0.124,0.034-0.248,0.051-0.372c0.025-0.184,0.05-0.367,0.064-0.55
          c0.01-0.117,0.014-0.234,0.019-0.351c0.009-0.196,0.014-0.391,0.011-0.585c-0.002-0.104-0.004-0.208-0.009-0.311
          c-0.009-0.216-0.027-0.43-0.05-0.643c-0.009-0.083-0.017-0.166-0.028-0.249c-0.034-0.255-0.079-0.508-0.133-0.759
          c-0.009-0.042-0.015-0.083-0.024-0.125c-0.069-0.302-0.151-0.6-0.247-0.893c-0.006-0.018-0.013-0.035-0.019-0.052
          c-0.087-0.26-0.186-0.517-0.294-0.768c-0.04-0.092-0.084-0.182-0.126-0.273c-0.081-0.175-0.165-0.348-0.257-0.518
          c-0.057-0.107-0.117-0.212-0.178-0.317c-0.088-0.151-0.181-0.299-0.277-0.446c-0.069-0.106-0.138-0.212-0.211-0.316
          c-0.11-0.155-0.228-0.304-0.347-0.453c-0.066-0.083-0.128-0.169-0.198-0.25c-0.188-0.22-0.387-0.432-0.594-0.635
          c-0.063-0.062-0.13-0.118-0.195-0.178c-0.162-0.151-0.328-0.298-0.501-0.439c-0.074-0.06-0.151-0.118-0.227-0.176
          c-0.181-0.139-0.367-0.271-0.559-0.398c-0.069-0.045-0.137-0.091-0.208-0.135c-0.063-0.04-0.124-0.085-0.188-0.123l4.454-16.606
          l42.409,11.363L215.733,143.945z"/>
      </g>
    </g>
    <g>
      <g>
        <path d="M164.797,231.165l-0.234-0.062c-5.335-1.422-10.816,1.749-12.239,7.085c-1.424,5.337,1.748,10.816,7.085,12.239
          l0.234,0.063c0.863,0.23,1.73,0.34,2.583,0.34c4.419,0,8.463-2.953,9.656-7.426C173.305,238.067,170.133,232.588,164.797,231.165z
          "/>
      </g>
    </g>
    <g>
      <g>
        <path d="M164.826,352.121c-5.036-8.723-13.167-14.961-22.896-17.568c-3.198-0.857-6.487-1.292-9.775-1.292
          c-17.024,0-31.993,11.495-36.401,27.953c-2.607,9.728-1.27,19.889,3.766,28.611c5.036,8.722,13.167,14.961,22.895,17.567
          c3.198,0.857,6.487,1.291,9.775,1.291c17.023,0,31.993-11.494,36.402-27.953C171.2,371.003,169.862,360.842,164.826,352.121z
          M149.275,375.555c-2.071,7.73-9.096,13.128-17.084,13.128c-1.541,0-3.088-0.205-4.6-0.61c-4.568-1.224-8.386-4.154-10.75-8.249
          c-2.365-4.096-2.993-8.866-1.768-13.435c2.07-7.73,9.095-13.129,17.083-13.129c1.541,0,3.088,0.205,4.6,0.61
          c4.568,1.224,8.386,4.154,10.751,8.25C149.87,366.216,150.498,370.987,149.275,375.555z"/>
      </g>
    </g>
    <g>
      <g>
        <path d="M485.012,447.127l-45.859-171.149c-6.93-25.862-30.753-47.728-49.435-52.794c-5.48-14.295-11.028-28.14-16.359-40.867
          c-0.007-0.017-0.014-0.033-0.021-0.05c-6.103-14.569-11.917-27.664-17.018-38.281c0.815-1.109,1.5-2.308,2.024-3.572
          c1.593-3.843,1.579-8.001,0.007-11.645l-5.338-19.919c-0.437-3.869-2.445-7.414-5.672-9.916c-4.243-3.293-10.15-4.462-15.417-3.05
          l-48.177,12.908c-4.382,1.175-8.048,3.992-10.322,7.932c-2.275,3.941-2.882,8.525-1.707,12.907l5.83,21.764
          c1.344,5.011,4.778,8.906,9.108,11.026c0.554,7.341,1.35,15.663,2.359,24.711c0.006,0.064,0.015,0.128,0.022,0.192
          c2.018,18.061,4.875,38.972,8.311,60.61c-13.644,13.73-23.343,44.579-16.414,70.439l45.859,171.148
          c2.186,8.155,7.714,14.843,15.566,18.832c4.759,2.419,10.021,3.648,15.372,3.648c3.072,0,6.175-0.405,9.228-1.224l93.895-25.159
          c8.372-2.243,15.508-7.357,20.093-14.399C485.754,463.837,487.197,455.282,485.012,447.127z M297.769,144.084
          c-0.149-0.024-0.3-0.044-0.451-0.062c-0.172-0.021-0.344-0.037-0.518-0.049c-0.118-0.008-0.236-0.016-0.356-0.02
          c-0.063-0.002-0.124-0.009-0.186-0.01l-4.449-16.608l42.409-11.36l4.451,16.606c-0.064,0.039-0.125,0.083-0.188,0.123
          c-0.071,0.045-0.141,0.091-0.211,0.137c-0.19,0.126-0.375,0.258-0.555,0.395c-0.077,0.06-0.155,0.118-0.231,0.179
          c-0.17,0.139-0.334,0.284-0.494,0.433c-0.066,0.062-0.136,0.121-0.201,0.184c-0.205,0.202-0.403,0.413-0.59,0.631
          c-0.073,0.085-0.139,0.176-0.209,0.264c-0.115,0.144-0.229,0.289-0.336,0.438c-0.076,0.106-0.146,0.215-0.218,0.325
          c-0.094,0.143-0.185,0.287-0.271,0.435c-0.063,0.107-0.124,0.216-0.183,0.326c-0.09,0.167-0.172,0.336-0.252,0.507
          c-0.044,0.094-0.09,0.187-0.13,0.282c-0.105,0.246-0.201,0.497-0.287,0.751c-0.008,0.023-0.018,0.046-0.025,0.069
          c-0.096,0.292-0.177,0.589-0.246,0.889c-0.01,0.046-0.017,0.092-0.026,0.138c-0.053,0.246-0.098,0.495-0.132,0.746
          c-0.011,0.085-0.018,0.171-0.028,0.256c-0.023,0.211-0.04,0.423-0.05,0.637c-0.005,0.104-0.008,0.209-0.01,0.314
          c-0.002,0.193,0.003,0.386,0.012,0.581c0.005,0.119,0.01,0.236,0.018,0.355c0.015,0.183,0.04,0.365,0.065,0.548
          c0.017,0.124,0.029,0.249,0.052,0.372c0.047,0.266,0.105,0.531,0.175,0.796c0.072,0.278,0.162,0.554,0.26,0.828
          c0.026,0.073,0.046,0.15,0.073,0.223c0.012,0.031,0.028,0.061,0.04,0.091c0.116,0.296,0.243,0.585,0.385,0.864
          c4.147,8.203,8.958,18.607,14.127,30.485h-41.043c-0.863-8.542-1.496-16.233-1.859-22.779c-0.017-0.303-0.052-0.608-0.097-0.913
          c-0.006-0.041-0.008-0.082-0.014-0.122c-0.011-0.066-0.029-0.132-0.042-0.198c-0.053-0.294-0.114-0.586-0.192-0.871
          c-0.073-0.268-0.156-0.53-0.25-0.787c-0.041-0.114-0.091-0.224-0.137-0.337c-0.071-0.175-0.144-0.35-0.224-0.519
          c-0.05-0.105-0.105-0.208-0.159-0.312c-0.09-0.173-0.183-0.344-0.281-0.511c-0.055-0.092-0.111-0.182-0.168-0.272
          c-0.112-0.175-0.23-0.346-0.353-0.513c-0.056-0.076-0.109-0.153-0.167-0.227c-0.142-0.183-0.291-0.359-0.444-0.531
          c-0.048-0.053-0.092-0.108-0.14-0.16c-0.201-0.215-0.41-0.422-0.628-0.618c-0.075-0.068-0.156-0.129-0.233-0.195
          c-0.142-0.12-0.283-0.239-0.432-0.35c-0.124-0.095-0.254-0.182-0.383-0.271c-0.105-0.071-0.209-0.142-0.316-0.209
          c-0.15-0.095-0.304-0.186-0.46-0.273c-0.086-0.048-0.173-0.093-0.26-0.139c-0.175-0.091-0.351-0.18-0.531-0.261
          c-0.055-0.024-0.11-0.045-0.165-0.069c-0.605-0.258-1.238-0.456-1.895-0.59C298.011,144.131,297.891,144.105,297.769,144.084z
          M312.407,261.189l11.478-3.075c5.335-1.429,8.501-6.913,7.071-12.247c-1.43-5.334-6.915-8.502-12.247-7.071l-2.445,0.655
          c-2.354-15.164-4.403-29.844-6.052-43.269h47.257c5.112,12.394,10.395,25.74,15.591,39.444c1.441,3.798,5.037,6.348,9.099,6.45
          c7.774,0.196,25.369,12.582,34.04,29.7l-117.482,31.48C297.715,284.985,305.891,266.395,312.407,261.189z M337.214,451.133
          l-34.372-128.278l119.58-32.042l34.372,128.278L337.214,451.133z M464.188,460.307c-1.889,2.9-4.91,5.029-8.508,5.993
          l-93.895,25.159c-3.599,0.964-7.278,0.632-10.364-0.936c-2.726-1.385-4.61-3.579-5.307-6.179l-3.723-13.894l119.58-32.042
          l3.723,13.895C466.39,454.903,465.856,457.746,464.188,460.307z"/>
      </g>
    </g>
    <g>
      <g>
        <path d="M359.665,238.178c-1.429-5.334-6.909-8.503-12.246-7.073l-0.233,0.063c-5.335,1.429-8.501,6.912-7.072,12.246
          c1.196,4.469,5.236,7.416,9.653,7.416c0.855,0,1.727-0.111,2.593-0.343l0.233-0.063
          C357.928,248.995,361.094,243.512,359.665,238.178z"/>
      </g>
    </g>
    <g>
      <g>
        <path d="M416.238,361.214c-4.409-16.459-19.379-27.954-36.402-27.954c-3.288,0-6.577,0.435-9.775,1.292
          c-9.729,2.606-17.859,8.845-22.896,17.568c-5.035,8.722-6.373,18.883-3.767,28.612c4.41,16.456,19.38,27.951,36.402,27.952
          c0.001,0,0.001,0,0.002,0c3.287,0,6.576-0.435,9.774-1.291c9.728-2.606,17.859-8.845,22.895-17.567
          C417.507,381.103,418.845,370.942,416.238,361.214z M395.152,379.825c-2.365,4.096-6.183,7.025-10.75,8.249
          c-1.511,0.405-3.059,0.61-4.599,0.61c0,0,0,0-0.001,0c-7.987,0-15.014-5.399-17.085-13.128c-1.224-4.568-0.596-9.339,1.768-13.435
          c2.365-4.096,6.183-7.025,10.751-8.25c1.511-0.405,3.059-0.61,4.6-0.61c7.987,0,15.013,5.399,17.084,13.13
          C398.144,370.958,397.516,375.729,395.152,379.825z"/>
      </g>
    </g>
    <g>
      <g>
        <path d="M255.996,0c-5.523,0-10,4.477-10,10v26.764c0,5.523,4.477,10,10,10c5.522,0,10-4.477,10-10V10
          C265.996,4.477,261.519,0,255.996,0z"/>
      </g>
    </g>
    <g>
      <g>
        <path d="M222.552,50.193l-13.596-23.178c-2.794-4.764-8.922-6.361-13.685-3.566c-4.764,2.794-6.36,8.921-3.566,13.685
          l13.596,23.178c1.862,3.174,5.203,4.942,8.635,4.942c1.719,0,3.461-0.443,5.05-1.376C223.75,61.083,225.346,54.956,222.552,50.193
          z"/>
      </g>
    </g>
    <g>
      <g>
        <path d="M316.723,23.449c-4.765-2.795-10.892-1.197-13.686,3.566l-13.596,23.178c-2.794,4.764-1.198,10.891,3.566,13.685
          c1.59,0.933,3.331,1.376,5.05,1.376c3.432,0,6.773-1.768,8.636-4.942l13.596-23.178C323.083,32.37,321.486,26.243,316.723,23.449z
          "/>
      </g>
    </g>
    <g>
    </g>
    <g>
    </g>
    <g>
    </g>
    <g>
    </g>
    <g>
    </g>
    <g>
    </g>
    <g>
    </g>
    <g>
    </g>
    <g>
    </g>
    <g>
    </g>
    <g>
    </g>
    <g>
    </g>
    <g>
    </g>
    <g>
    </g>
    <g>
    </g>
  </symbol>

  <symbol id="talk" fill="curentColor" xmlns="http://www.w3.org/2000/svg" viewBox="0 0 32 32">
    <title>Talk</title><g id="_23.SPEAK" data-name="23.SPEAK">
    <path d="M22,7.33,12.25,9.26V7.57a.94.94,0,0,0-.94-.94H4.71a.94.94,0,0,0-.94.94v1H.94A.94.94,0,0,0,0,9.54v5.93a.94.94,0,0,0,.94.94H3.77v4a.94.94,0,0,0,.94.94h1l2,7.34a.94.94,0,0,0,.91.7l.23,0,2.75-.69a.94.94,0,0,0,.68-1.16l-1.66-6.16h.69a.94.94,0,0,0,.94-.94V18.72L22,20.65l.18,0a.94.94,0,0,0,.94-.94V8.25A.94.94,0,0,0,22,7.33ZM5.65,8.51h4.72v11H5.65v-11Zm-3.77,6v-4H3.77v4Zm8.33,12.55-.92.23-1.6-6h1Zm11.07-8.49-9-1.78V11.18l9-1.78Z"/><path d="M25.33,11a1,1,0,0,0,.34-.07L31.4,8.71A.94.94,0,1,0,30.71,7L25,9.21A.94.94,0,0,0,25.33,11Z"/><path d="M31.4,18.23,25.68,16A.94.94,0,0,0,25,17.73L30.71,20a.94.94,0,0,0,.69-1.75Z"/><path d="M31.06,12.53H26.48a.94.94,0,1,0,0,1.88h4.58a.94.94,0,0,0,0-1.88Z"/></g>
  </symbol>

  <symbol version="1.1" id="flight" fill="currentColor" xmlns="http://www.w3.org/2000/svg" xmlns:xlink="http://www.w3.org/1999/xlink" x="0px" y="0px"
	 viewBox="0 0 64 64" style="enable-background:new 0 0 64 64;" xml:space="preserve">
    <g id="Guide">
      <g>
      </g>
      <g>
      </g>
      <g>
      </g>
      <g>
      </g>
      <g>
      </g>
      <g>
      </g>
      <g>
      </g>
      <g>
      </g>
      <g>
      </g>
      <g>
      </g>
      <g>
      </g>
      <g>
      </g>
      <g>
      </g>
      <g>
      </g>
      <g>
      </g>
      <g>
      </g>
      <g>
      </g>
      <g>
      </g>
      <g>
      </g>
      <g>
      </g>
      <g>
      </g>
      <g>
      </g>
      <g>
      </g>
      <g>
      </g>
      <g>
      </g>
      <g>
      </g>
      <g>
      </g>
      <g>
      </g>
      <g>
      </g>
      <g>
      </g>
      <g>
      </g>
      <g>
      </g>
      <g>
      </g>
      <g>
      </g>
      <g>
      </g>
      <g>
      </g>
    </g>
    <path d="M63,17h-5c-0.334,0-0.646,0.167-0.832,0.445L51.465,26H39V14c0-0.552-0.448-1-1-1h-5c-0.379,0-0.725,0.214-0.895,0.553
      L25.882,26H11.593c-1.295,0-2.512,0.504-3.427,1.42l-2.05,2.049c-0.398,0.399-0.901,0.668-1.454,0.779l-0.766,0.153
      C1.639,30.853,0,32.851,0,35.153C0,37.826,2.174,40,4.847,40h21.035l6.224,12.447C32.275,52.786,32.621,53,33,53h5
      c0.552,0,1-0.448,1-1V40h4c0.097,0,0.194-0.014,0.287-0.042l20-6C63.71,33.831,64,33.441,64,33v-6c0-0.044-0.02,0-0.025,0H64v-9
      C64,17.448,63.552,17,63,17z M62,26h-3l3-4V26z M58.535,19h3.215l-5.25,7h-2.632L58.535,19z M33.618,15H37v11h-8.882L33.618,15z
      M37,51h-3.382l-6.224-12.447L25.618,35H37v4V51z M62,32.256L42.853,38H39v-4c0-0.552-0.448-1-1-1H24
      c-0.347,0-0.668,0.18-0.851,0.474c-0.182,0.295-0.199,0.663-0.044,0.973L24.882,38H4.847C3.277,38,2,36.723,2,35.153
      c0-1.352,0.962-2.526,2.288-2.792l0.766-0.153c0.941-0.188,1.798-0.647,2.476-1.326l2.05-2.049C10.118,28.296,10.833,28,11.593,28
      H26.5H38h24V32.256z"/>
    <rect x="13" y="30" width="2" height="2"/>
    <rect x="17" y="30" width="2" height="2"/>
    <rect x="21" y="30" width="2" height="2"/>
    <rect x="25" y="30" width="2" height="2"/>
    <rect x="29" y="30" width="2" height="2"/>
    <rect x="33" y="30" width="2" height="2"/>
    <rect x="37" y="30" width="2" height="2"/>
    <rect x="41" y="30" width="2" height="2"/>
    <rect x="45" y="30" width="2" height="2"/>
    <rect x="49" y="30" width="2" height="2"/>
    <rect x="16" y="9" width="15" height="2"/>
    <rect x="33" y="9" width="2" height="2"/>
    <rect x="37" y="9" width="2" height="2"/>
    <rect x="43" y="43" width="13" height="2"/>
    <rect x="58" y="43" width="2" height="2"/>
    <rect x="62" y="43" width="2" height="2"/>
    <rect x="5" y="54" width="13" height="2"/>
    <rect x="20" y="54" width="2" height="2"/>
    <rect x="24" y="54" width="2" height="2"/>
    <rect x="41" y="9" width="2" height="2"/>
  </symbol>

  <symbol id="beer-left" viewBox="0 0 64 64" fill="none" xmlns="http://www.w3.org/2000/svg">
    <path d="M58.726 21.666C58.2567 21.1423 57.6824 20.7232 57.0404 20.4362C56.3984 20.1492 55.7032 20.0005 55 20H45.816C45.6233 19.459 45.2788 18.985 44.8237 18.6348C44.3686 18.2845 43.8223 18.0728 43.25 18.025L43.075 13.909C43.4459 13.3939 43.7125 12.8114 43.86 12.194C43.8926 12.0652 43.8991 11.9313 43.8794 11.8C43.8596 11.6686 43.8139 11.5425 43.7449 11.4291C43.6759 11.3156 43.5849 11.217 43.4774 11.1391C43.3699 11.0611 43.2479 11.0054 43.1186 10.9751C42.9892 10.9448 42.8552 10.9406 42.7242 10.9627C42.5933 10.9848 42.468 11.0327 42.3558 11.1037C42.2436 11.1748 42.1466 11.2674 42.0706 11.3763C41.9945 11.4852 41.941 11.6082 41.913 11.738C41.7896 12.2532 41.5293 12.7255 41.1597 13.105C40.79 13.4845 40.3247 13.7571 39.813 13.894C39.291 14.037 38.7401 14.037 38.2181 13.8939C37.6961 13.7509 37.2222 13.4701 36.846 13.081C36.7069 12.9367 36.5277 12.8375 36.3315 12.7963C36.1354 12.7551 35.9314 12.7738 35.746 12.85C35.4608 12.968 35.1517 13.0168 34.844 12.9923C34.5364 12.9678 34.2389 12.8707 33.976 12.709C33.7864 12.5958 33.5647 12.5486 33.3455 12.5747C33.1262 12.6007 32.9218 12.6986 32.764 12.853C32.361 13.254 31.876 13.563 31.3423 13.7588C30.8086 13.9547 30.2389 14.0327 29.6722 13.9876C29.1055 13.9425 28.5553 13.7752 28.0594 13.4974C27.5634 13.2196 27.1334 12.8377 26.799 12.378C26.7202 12.2721 26.6212 12.1829 26.5078 12.1154C26.3943 12.048 26.2686 12.0036 26.138 11.985C25.8743 11.95 25.6074 12.0192 25.394 12.178C24.6957 12.7133 23.8398 13.0023 22.96 13C21.6255 12.9851 20.3391 13.498 19.381 14.427C18.9417 14.8596 18.5933 15.3756 18.3561 15.9447C18.119 16.5138 17.9979 17.1245 18 17.741V25C17.9999 25.145 17.9683 25.2883 17.9073 25.4199C17.8464 25.5514 17.7575 25.6682 17.647 25.762C17.5346 25.857 17.4027 25.9262 17.2608 25.9649C17.1188 26.0036 16.97 26.0108 16.825 25.986C16.5828 25.9264 16.3685 25.7852 16.2183 25.5861C16.068 25.387 15.9909 25.1423 16 24.893V15C16 14.7348 15.8946 14.4804 15.7071 14.2929C15.5195 14.1054 15.2652 14 15 14C14.4688 13.996 13.9482 13.8511 13.4914 13.58C13.0346 13.3089 12.6579 12.9214 12.4 12.457C12.3021 12.2835 12.1545 12.1433 11.9764 12.0542C11.7982 11.9651 11.5975 11.9313 11.4 11.957L11.295 11.971C10.8251 12.024 10.3493 11.9628 9.90813 11.7925C9.46695 11.6223 9.07342 11.348 8.76098 10.993C8.47663 10.6746 8.26395 10.2989 8.13732 9.89123C8.01069 9.48356 7.97306 9.05346 8.02698 8.63C8.1013 8.03201 8.3544 7.47038 8.75315 7.0186C9.15191 6.56681 9.67775 6.24591 10.2619 6.09788C10.846 5.94985 11.4612 5.98158 12.027 6.18893C12.5928 6.39628 13.0828 6.76959 13.433 7.26C13.5396 7.40864 13.6849 7.5252 13.8531 7.59699C14.0214 7.66878 14.2061 7.69306 14.3871 7.66717C14.5682 7.64129 14.7387 7.56625 14.8801 7.4502C15.0215 7.33415 15.1283 7.18155 15.189 7.009C15.3392 6.56726 15.5917 6.16724 15.9258 5.84152C16.2599 5.51579 16.6662 5.27358 17.1116 5.13459C17.557 4.99561 18.0289 4.96378 18.489 5.0417C18.949 5.11962 19.3842 5.30509 19.759 5.583C19.9205 5.7012 20.1138 5.76819 20.3138 5.77532C20.5139 5.78245 20.7114 5.72939 20.881 5.623C21.7274 5.08077 22.749 4.8823 23.7369 5.06817C24.7249 5.25404 25.6045 5.81022 26.196 6.623C26.3551 6.83518 26.592 6.97545 26.8546 7.01295C27.1171 7.05046 27.3838 6.98213 27.596 6.823C28.1893 6.36356 28.9025 6.08504 29.6501 6.02083C30.3978 5.95662 31.148 6.10945 31.811 6.461C31.9359 6.52545 32.073 6.56284 32.2133 6.57075C32.3536 6.57865 32.494 6.55689 32.6253 6.50688C32.7567 6.45687 32.876 6.37974 32.9755 6.28051C33.0751 6.18129 33.1526 6.0622 33.203 5.931C33.4517 5.28264 33.9177 4.74065 34.5215 4.39749C35.1252 4.05433 35.8293 3.93125 36.5136 4.04924C37.198 4.16723 37.8202 4.51899 38.2742 5.04451C38.7281 5.57003 38.9857 6.23677 39.003 6.931C38.998 6.968 38.988 7.069 38.987 7.105C38.9799 7.33236 39.0505 7.55534 39.1873 7.73714C39.324 7.91894 39.5186 8.0487 39.739 8.105C40.3456 8.25868 40.8889 8.59819 41.293 9.076C41.378 9.17614 41.4819 9.25854 41.5988 9.31851C41.7157 9.37848 41.8432 9.41485 41.9742 9.42553C42.1051 9.4362 42.2368 9.42099 42.3619 9.38075C42.4869 9.34051 42.6028 9.27604 42.703 9.191C42.8031 9.10597 42.8855 9.00205 42.9455 8.88518C43.0055 8.7683 43.0418 8.64075 43.0525 8.50982C43.0632 8.37889 43.048 8.24714 43.0077 8.12209C42.9675 7.99704 42.903 7.88114 42.818 7.781C42.3156 7.18754 41.6813 6.71976 40.966 6.415C40.8212 5.19918 40.236 4.07855 39.3209 3.26501C38.4058 2.45148 37.2244 2.00144 36 2C35.1641 1.99686 34.3411 2.2054 33.6075 2.60617C32.874 3.00694 32.2539 3.58691 31.805 4.292C31.0463 4.04379 30.2448 3.95354 29.4499 4.02681C28.655 4.10007 27.8835 4.3353 27.183 4.718C26.3053 3.84919 25.1783 3.27617 23.9591 3.07896C22.74 2.88175 21.4898 3.07021 20.383 3.618C19.6539 3.21323 18.8339 3.00056 18 3C17.2239 3.00182 16.459 3.18495 15.7663 3.5348C15.0735 3.88464 14.4721 4.39152 14.01 5.015C13.4497 4.58587 12.8048 4.28023 12.1179 4.11818C11.431 3.95612 10.7175 3.94133 10.0245 4.07477C9.33145 4.20821 8.67451 4.48687 8.09687 4.8924C7.51924 5.29794 7.03401 5.82117 6.67308 6.42768C6.31216 7.03419 6.08373 7.71023 6.00282 8.41135C5.9219 9.11248 5.99034 9.82279 6.20362 10.4956C6.4169 11.1683 6.7702 11.7883 7.24027 12.3148C7.71035 12.8412 8.28655 13.2622 8.93098 13.55L8.74898 18.025C8.0019 18.0877 7.30538 18.4279 6.79658 18.9785C6.28779 19.5291 6.0036 20.2503 5.99998 21V25C5.99998 25.7957 6.31605 26.5587 6.87866 27.1213C7.44127 27.6839 8.20433 28 8.99998 28H16.669L16.34 44H9.69298L10.241 30.649C10.2518 30.3841 10.157 30.1257 9.97732 29.9306C9.79767 29.7356 9.54792 29.6199 9.28298 29.609C9.15132 29.6016 9.01951 29.6207 8.89537 29.6652C8.77123 29.7097 8.65729 29.7786 8.5603 29.868C8.46331 29.9573 8.38524 30.0652 8.33074 30.1853C8.27623 30.3054 8.24639 30.4352 8.24298 30.567L7.67798 44.32C7.17605 44.5656 6.75288 44.9468 6.45634 45.4204C6.15979 45.894 6.00171 46.4412 5.99998 47V51C5.99995 51.4866 6.11828 51.9659 6.34476 52.3965C6.57124 52.8272 6.89907 53.1963 7.29998 53.472L7.17098 56.8C7.14403 57.4732 7.25343 58.145 7.4926 58.7749C7.73178 59.4048 8.09581 59.9799 8.56281 60.4655C9.02982 60.9512 9.59017 61.3375 10.2102 61.6012C10.8303 61.8649 11.4972 62.0005 12.171 62H39.83C40.9825 62.0041 42.1005 61.6073 42.9925 60.8775C43.8844 60.1478 44.4948 59.1305 44.719 58H48.31C50.5258 58.0016 52.6643 57.185 54.3149 55.7067C55.9656 54.2284 57.0122 52.1926 57.254 49.99L58.014 43.12C58.042 42.857 57.9648 42.5936 57.7991 42.3875C57.6334 42.1813 57.3928 42.0492 57.13 42.02C56.8675 41.9946 56.6055 42.0728 56.4 42.238C56.1944 42.4032 56.0616 42.6422 56.03 42.904L55.27 49.774C55.0807 51.487 54.2657 53.0697 52.9813 54.2187C51.6968 55.3677 50.0334 56.002 48.31 56H44.8L44.7 53.472C45.2171 53.1105 45.6075 52.5955 45.816 52H47.7C48.4312 52 49.1373 51.733 49.6855 51.2491C50.2337 50.7651 50.5863 50.0976 50.677 49.372L53.177 29.372C53.2297 28.9499 53.1921 28.5214 53.0666 28.115C52.9411 27.7085 52.7306 27.3334 52.4491 27.0145C52.1675 26.6956 51.8214 26.4402 51.4337 26.2653C51.0459 26.0904 50.6254 26 50.2 26H48C47.7348 26 47.4804 26.1054 47.2929 26.2929C47.1053 26.4804 47 26.7348 47 27C47 27.2652 47.1053 27.5196 47.2929 27.7071C47.4804 27.8946 47.7348 28 48 28H50.2C50.3417 28 50.4819 28.0302 50.6111 28.0885C50.7403 28.1469 50.8557 28.232 50.9495 28.3383C51.0433 28.4446 51.1134 28.5696 51.1552 28.7051C51.197 28.8405 51.2096 28.9833 51.192 29.124L48.692 49.124C48.6618 49.3658 48.5443 49.5883 48.3616 49.7496C48.179 49.9109 47.9437 49.9999 47.7 50H46V47C45.9982 46.4412 45.8402 45.894 45.5436 45.4204C45.2471 44.9468 44.8239 44.5656 44.322 44.32L43.649 27.925C44.315 27.7774 44.9109 27.4072 45.3383 26.8755C45.7657 26.3437 45.9991 25.6822 46 25V22H55C55.4221 22.0006 55.8394 22.0899 56.2248 22.2622C56.6102 22.4344 56.955 22.6858 57.237 23C57.5203 23.3128 57.7337 23.6824 57.8628 24.0842C57.992 24.486 58.034 24.9107 57.986 25.33L56.476 38.93C56.4479 39.193 56.5252 39.4564 56.6909 39.6625C56.8565 39.8687 57.0971 40.0008 57.36 40.03C57.3972 40.034 57.4346 40.036 57.472 40.036C57.7178 40.0355 57.9549 39.9445 58.1379 39.7803C58.3208 39.6162 58.4369 39.3903 58.464 39.146L59.974 25.546C60.0498 24.8479 59.9778 24.1417 59.7628 23.4732C59.5478 22.8047 59.1945 22.189 58.726 21.666V21.666ZM35.879 14.9C36.4933 15.3934 37.2155 15.7347 37.9867 15.896C38.758 16.0572 39.5564 16.0339 40.317 15.828C40.6009 15.7511 40.8771 15.648 41.142 15.52L41.242 17.999H35.121L35.063 14.987C35.3373 14.9866 35.6108 14.9574 35.879 14.9V14.9ZM30 16C31.0833 15.9952 32.1441 15.6906 33.065 15.12L33.12 18H27V15.183C27.9089 15.7187 28.9449 16.0008 30 16ZM11 14H11.021C11.7508 14.9736 12.8095 15.6488 14 15.9V18H10.751L10.914 14C10.943 14 10.971 14 11 14ZM7.99998 25V21C7.99998 20.7348 8.10534 20.4804 8.29287 20.2929C8.48041 20.1054 8.73476 20 8.99998 20H14V24.893C14.0006 25.2709 14.0683 25.6457 14.2 26H8.99998C8.73476 26 8.48041 25.8946 8.29287 25.7071C8.10534 25.5196 7.99998 25.2652 7.99998 25ZM18.67 28H25V44H18.341L18.67 28ZM41.65 28L42.307 44H35.66L35.331 28H41.65ZM33.33 28L33.68 45.021C33.6855 45.2826 33.7933 45.5316 33.9802 45.7146C34.1671 45.8976 34.4184 46.0001 34.68 46H43C43.2652 46 43.5196 46.1054 43.7071 46.2929C43.8946 46.4804 44 46.7348 44 47V51C44 51.2652 43.8946 51.5196 43.7071 51.7071C43.5196 51.8946 43.2652 52 43 52H8.99998C8.73476 52 8.48041 51.8946 8.29287 51.7071C8.10534 51.5196 7.99998 51.2652 7.99998 51V47C7.99998 46.7348 8.10534 46.4804 8.29287 46.2929C8.48041 46.1054 8.73476 46 8.99998 46H31C31.2652 46 31.5196 45.8946 31.7071 45.7071C31.8946 45.5196 32 45.2652 32 45C32 44.7348 31.8946 44.4804 31.7071 44.2929C31.5196 44.1054 31.2652 44 31 44H27V28H33.33ZM33.98 60H27V57C27 56.7348 26.8946 56.4804 26.7071 56.2929C26.5196 56.1054 26.2652 56 26 56C25.7348 56 25.4804 56.1054 25.2929 56.2929C25.1053 56.4804 25 56.7348 25 57V60H18.02L18.141 54H33.859L33.98 60ZM9.99998 59.08C9.71908 58.789 9.50029 58.4439 9.35692 58.0657C9.21355 57.6875 9.14858 57.2841 9.16598 56.88L9.28498 54H16.14L16.02 60H12.17C11.7647 60.0022 11.3633 59.9218 10.9902 59.7636C10.6171 59.6054 10.2802 59.3728 9.99998 59.08V59.08ZM42 59.08C41.7198 59.3728 41.3829 59.6054 41.0098 59.7636C40.6367 59.9218 40.2352 60.0022 39.83 60H35.98L35.86 54H42.715L42.831 56.879C42.8489 57.283 42.7845 57.6865 42.6416 58.0649C42.4988 58.4433 42.2805 58.7886 42 59.08ZM44 25C44 25.2652 43.8946 25.5196 43.7071 25.7071C43.5196 25.8946 43.2652 26 43 26H19.811C19.9306 25.6799 19.9945 25.3417 20 25V17.741C19.9988 17.3889 20.0679 17.0401 20.2032 16.7151C20.3385 16.3901 20.5373 16.0953 20.788 15.848C21.3735 15.2881 22.157 14.9832 22.967 15C23.6602 14.9955 24.3476 14.8734 25 14.639V18H23C22.7348 18 22.4804 18.1054 22.2929 18.2929C22.1053 18.4804 22 18.7348 22 19C22 19.2652 22.1053 19.5196 22.2929 19.7071C22.4804 19.8946 22.7348 20 23 20H43C43.2652 20 43.5196 20.1054 43.7071 20.2929C43.8946 20.4804 44 20.7348 44 21V25Z" fill="currentColor"/>
  <path d="M26 50C26.5523 50 27 49.5523 27 49C27 48.4477 26.5523 48 26 48C25.4477 48 25 48.4477 25 49C25 49.5523 25.4477 50 26 50Z" fill="currentColor"/>
  <path d="M31 50C31.5523 50 32 49.5523 32 49C32 48.4477 31.5523 48 31 48C30.4477 48 30 48.4477 30 49C30 49.5523 30.4477 50 31 50Z" fill="currentColor"/>
  <path d="M36 50C36.5523 50 37 49.5523 37 49C37 48.4477 36.5523 48 36 48C35.4477 48 35 48.4477 35 49C35 49.5523 35.4477 50 36 50Z" fill="currentColor"/>
  <path d="M41 50C41.5523 50 42 49.5523 42 49C42 48.4477 41.5523 48 41 48C40.4477 48 40 48.4477 40 49C40 49.5523 40.4477 50 41 50Z" fill="currentColor"/>
  <path d="M11 50C11.5523 50 12 49.5523 12 49C12 48.4477 11.5523 48 11 48C10.4477 48 10 48.4477 10 49C10 49.5523 10.4477 50 11 50Z" fill="currentColor"/>
  <path d="M16 50C16.5523 50 17 49.5523 17 49C17 48.4477 16.5523 48 16 48C15.4477 48 15 48.4477 15 49C15 49.5523 15.4477 50 16 50Z" fill="currentColor"/>
  <path d="M21 50C21.5523 50 22 49.5523 22 49C22 48.4477 21.5523 48 21 48C20.4477 48 20 48.4477 20 49C20 49.5523 20.4477 50 21 50Z" fill="currentColor"/>
  <path d="M26 24C26.5523 24 27 23.5523 27 23C27 22.4477 26.5523 22 26 22C25.4477 22 25 22.4477 25 23C25 23.5523 25.4477 24 26 24Z" fill="currentColor"/>
  <path d="M31 24C31.5523 24 32 23.5523 32 23C32 22.4477 31.5523 22 31 22C30.4477 22 30 22.4477 30 23C30 23.5523 30.4477 24 31 24Z" fill="currentColor"/>
  <path d="M36 24C36.5523 24 37 23.5523 37 23C37 22.4477 36.5523 22 36 22C35.4477 22 35 22.4477 35 23C35 23.5523 35.4477 24 36 24Z" fill="currentColor"/>
  <path d="M11 24C11.5523 24 12 23.5523 12 23C12 22.4477 11.5523 22 11 22C10.4477 22 10 22.4477 10 23C10 23.5523 10.4477 24 11 24Z" fill="currentColor"/>
  <path d="M21 24C21.5523 24 22 23.5523 22 23C22 22.4477 21.5523 22 21 22C20.4477 22 20 22.4477 20 23C20 23.5523 20.4477 24 21 24Z" fill="currentColor"/>
  <path d="M41 24C41.5523 24 42 23.5523 42 23C42 22.4477 41.5523 22 41 22C40.4477 22 40 22.4477 40 23C40 23.5523 40.4477 24 41 24Z" fill="currentColor"/>
  </symbol>


  <symbol version="1.1" id="beer-right" fill="currentColor" xmlns="http://www.w3.org/2000/svg" xmlns:xlink="http://www.w3.org/1999/xlink" x="0px" y="0px"
    viewBox="-3 5 512 512" style="enable-background:new -3 5 512 512;" xml:space="preserve">
    <g id="_x32_34_x2C__Beer_x2C__Drink_x2C__Food_x2C_">
      <g>
        <path d="M105.2,254.1H92c-17.6,0-31.9,14.3-31.9,31.9s14.3,31.9,31.9,31.9h13.2c5.5,0,10-4.5,10-10V264
          C115.2,258.5,110.7,254.1,105.2,254.1z M95.2,297.9H92c-6.6,0-11.9-5.4-11.9-12S85.5,274,92,274h3.2V297.9z"/>
        <path d="M170,186c-5.5,0-10,4.5-10,10v220c0,5.5,4.5,10,10,10s10-4.5,10-10V196C180,190.5,175.6,186,170,186z"/>
        <path d="M250,186c-5.5,0-10,4.5-10,10v220c0,5.5,4.5,10,10,10s10-4.5,10-10V196C260,190.5,255.5,186,250,186z"/>
        <path d="M330,186c-5.5,0-10,4.5-10,10v220c0,5.5,4.5,10,10,10s10-4.5,10-10V196C340,190.5,335.5,186,330,186z"/>
        <path d="M479.9,485.9h-61.7c6.9-19.4-7.6-40-28.3-40c-0.2-372.4,0.4-350-0.4-352.8c4.3-36.3-24.2-67.1-59.6-67.1
          c-13.1,0-25.6,4.2-36,12c-20.9-6.1-43.8,1.9-56,20.8c-7.4-2.3-15.2-3.2-23.1-2.5c-11.3-12.8-27.7-20.2-44.9-20.2
          c-33.1,0-60,26.9-60,60v130h-38c-23.1,0-42,18.8-42,42v36c0,23.2,18.8,42,42,42h38v100c-20.5,0-35.2,20.3-28.3,40H20.1
          c-5.5,0-10,4.5-10,10s4.5,10,10,10c89.1,0,352.6,0,459.8,0c5.5,0,10-4.5,10-10C489.9,490.4,485.4,485.9,479.9,485.9z M170,56.1
          c12.8,0,25,6.2,32.5,16.7c2.3,3.2,6.2,4.7,10,4c8.7-1.6,17.6-0.5,25.7,3.7c5.3,2.7,11.7,0.2,13.9-5.3
          c6.4-16.3,24.7-23.2,39.9-16.6c3.6,1.6,7.9,0.9,10.8-1.8c7.4-6.9,17.1-10.7,27.2-10.7c22.1,0,40,17.9,40,40
          c0,28.8-29.7,48.2-56,36.6c-6.6-2.9-14,2-14,9.2V166c0,5.5-4.5,10-10,10s-10-4.5-10-10v-41.3c0-8.4-9.7-12.7-16.1-8.6
          c-2.4,1.5-4,4-4.5,6.8c-3.3,19.2-19.9,33.2-39.4,33.2c-12.8,0-25-6.2-32.5-16.7c-2.3-3.2-6.2-4.7-10-4C152.8,140,130,121,130,96
          C130,74,148,56.1,170,56.1z M110,485.9c-5.5,0-10-4.5-10-10s4.5-10,10-10c17.2,0,121.8,0,159.9,0c5.5,0,10-4.5,10-10
          s-4.5-10-10-10H130V336c0-5.5-4.5-10-10-10H72c-12.1,0-22-9.9-22-22v-36c0-12.1,9.9-22,22-22h48c5.5,0,10-4.5,10-10v-95.3
          c12.2,11,28.4,16.5,45.1,15.1c22,24.8,60,27.2,84.9,5v5.2c0,16.5,13.5,30,30,30s30-13.5,30-30v-20.8c19,3.2,37-2.9,50-14.5V456
          c0,5.5,4.5,10,10,10h10c5.5,0,10,4.5,10,10s-4.5,10-10,10H110V485.9z"/>
        <path d="M439.9,176c16.5,0,30-13.5,30-30s-13.5-30-30-30s-30,13.5-30,30C409.9,162.6,423.4,176,439.9,176z M439.9,136
          c5.5,0,10,4.5,10,10s-4.5,10-10,10s-10-4.5-10-10S434.4,136,439.9,136z"/>
        <path d="M439.9,316c16.5,0,30-13.5,30-30s-13.5-30-30-30s-30,13.5-30,30S423.4,316,439.9,316z M439.9,276c5.5,0,10,4.5,10,10
          s-4.5,10-10,10s-10-4.5-10-10S434.4,276,439.9,276z"/>
        <path d="M50.1,176c16.5,0,30-13.5,30-30s-13.5-30-30-30s-30,13.5-30,30C20.1,162.6,33.5,176,50.1,176z M50.1,136
          c5.5,0,10,4.5,10,10s-4.5,10-10,10s-10-4.5-10-10S44.6,136,50.1,136z"/>
        <path d="M333.3,85.5c4.7-1.5,6.9,3.3,7.6,4.8c2.4,5,8.3,7.2,13.3,4.8c5-2.3,7.2-8.3,4.8-13.3c-8-17.2-23.9-18.5-32.6-15.1
          l7.2,18.7C333.6,85.4,333.5,85.4,333.3,85.5z"/>
      </g>
    </g>
    <g id="Layer_1_1_">
    </g>
  </symbol>

</svg>